<?xml version="1.0" standalone="no"?>
<!DOCTYPE svg PUBLIC "-//W3C//DTD SVG 20010904//EN"
 "http://www.w3.org/TR/2001/REC-SVG-20010904/DTD/svg10.dtd">
<svg version="1.0" xmlns="http://www.w3.org/2000/svg"
 width="320.000000pt" height="320.000000pt" viewBox="0 0 320.000000 320.000000"
 preserveAspectRatio="xMidYMid meet">

<g transform="translate(0.000000,320.000000) scale(0.100000,-0.100000)"
fill="#000000" stroke="none">
<path d="M910 2990 c0 -5 11 -10 25 -10 14 0 25 5 25 10 0 6 -11 10 -25 10
-14 0 -25 -4 -25 -10z"/>
<path d="M830 2970 c0 -5 -13 -10 -30 -10 -16 0 -30 -4 -30 -10 0 -5 -11 -10
-25 -10 -14 0 -25 -4 -25 -10 0 -5 -7 -10 -15 -10 -8 0 -15 -4 -15 -10 0 -5
-7 -10 -15 -10 -8 0 -15 -4 -15 -10 0 -5 -7 -10 -15 -10 -8 0 -15 -4 -15 -10
0 -5 -6 -10 -14 -10 -8 0 -18 -9 -21 -20 -3 -11 -13 -20 -21 -20 -8 0 -14 -4
-14 -10 0 -5 -11 -20 -24 -33 -27 -27 -66 -98 -66 -121 0 -8 -5 -16 -11 -18
-16 -5 -38 -139 -38 -233 -1 -86 24 -275 37 -284 4 -3 19 -40 32 -81 13 -41
27 -77 31 -80 11 -9 39 -69 39 -85 0 -8 4 -15 8 -15 5 0 17 -18 27 -40 10 -22
22 -40 26 -40 4 0 10 -9 14 -19 3 -11 19 -34 34 -50 16 -17 34 -44 41 -61 7
-16 19 -30 26 -30 8 0 20 -11 26 -25 6 -14 17 -25 25 -25 7 0 13 -4 13 -9 0
-5 18 -28 40 -51 22 -23 40 -46 40 -51 0 -5 5 -9 11 -9 13 0 49 -38 49 -52 0
-4 6 -8 13 -8 7 0 19 -9 27 -20 8 -11 19 -20 25 -20 6 0 17 -9 25 -20 8 -11
19 -20 25 -20 6 0 17 -9 25 -20 8 -11 19 -20 25 -20 6 0 17 -9 25 -20 8 -11
21 -20 30 -20 9 0 22 -9 30 -20 8 -11 20 -20 27 -20 7 0 13 -4 13 -10 0 -5 7
-10 15 -10 8 0 15 -4 15 -10 0 -5 8 -10 18 -10 10 0 24 -9 32 -20 8 -11 22
-20 32 -20 10 0 18 -4 18 -10 0 -5 9 -10 20 -10 11 0 20 -4 20 -10 0 -5 7 -10
15 -10 8 0 15 -4 15 -10 0 -5 11 -10 25 -10 14 0 25 -4 25 -10 0 -5 9 -10 20
-10 11 0 20 -4 20 -10 0 -5 11 -10 25 -10 14 0 25 -4 25 -10 0 -5 11 -10 25
-10 14 0 25 -4 25 -10 0 -5 14 -10 30 -10 17 0 30 -4 30 -10 0 -5 14 -10 30
-10 17 0 30 -4 30 -10 0 -5 20 -10 45 -10 25 0 45 -4 45 -10 0 -5 20 -10 45
-10 25 0 45 -4 45 -10 0 -6 63 -10 170 -10 107 0 170 4 170 10 0 6 20 10 45
10 25 0 45 5 45 10 0 6 11 10 25 10 14 0 25 5 25 10 0 6 11 10 25 10 14 0 25
5 25 10 0 6 -11 10 -25 10 -14 0 -25 -4 -25 -10 0 -5 -22 -10 -50 -10 -27 0
-50 -4 -50 -10 0 -6 -38 -10 -95 -10 -57 0 -95 4 -95 10 0 6 -27 10 -60 10
-33 0 -60 4 -60 10 0 6 -18 10 -40 10 -22 0 -40 5 -40 10 0 6 -16 10 -35 10
-19 0 -35 5 -35 10 0 6 -11 10 -25 10 -14 0 -25 5 -25 10 0 6 -11 10 -25 10
-14 0 -25 5 -25 10 0 6 -11 10 -25 10 -14 0 -25 5 -25 10 0 6 -7 10 -15 10 -8
0 -15 5 -15 10 0 6 -11 10 -25 10 -14 0 -25 5 -25 10 0 6 -9 10 -20 10 -11 0
-20 5 -20 10 0 6 -8 10 -18 10 -10 0 -24 9 -32 20 -8 11 -22 20 -32 20 -10 0
-18 5 -18 10 0 6 -7 10 -16 10 -9 0 -29 14 -44 30 -15 17 -35 30 -44 30 -9 0
-16 5 -16 10 0 6 -5 10 -11 10 -6 0 -24 14 -39 30 -15 17 -32 30 -37 30 -5 0
-15 9 -23 20 -8 11 -19 20 -25 20 -6 0 -17 9 -25 20 -8 11 -20 20 -27 20 -7 0
-13 4 -13 8 0 13 -36 52 -48 52 -6 0 -14 9 -17 20 -3 11 -11 20 -17 20 -14 0
-46 37 -53 61 -4 11 -12 19 -20 19 -7 0 -15 7 -19 15 -3 8 -12 15 -19 15 -8 0
-22 18 -32 40 -10 22 -23 40 -30 40 -7 0 -20 18 -30 40 -10 22 -21 40 -25 40
-4 0 -15 18 -25 40 -10 22 -21 40 -25 40 -4 0 -17 23 -30 50 -13 28 -27 50
-31 50 -5 0 -13 18 -19 40 -6 21 -16 45 -23 52 -12 12 -38 87 -53 153 -4 17
-11 32 -15 35 -4 3 -14 56 -21 118 -14 132 -1 300 26 328 9 8 16 22 16 30 0
16 25 69 44 91 44 54 107 113 120 113 9 0 16 5 16 10 0 6 9 10 20 10 11 0 20
5 20 10 0 6 9 10 20 10 11 0 20 5 20 10 0 6 -16 10 -35 10 -19 0 -35 -4 -35
-10z"/>
<path d="M1573 2831 c3 -15 9 -51 13 -80 4 -28 10 -51 15 -51 5 0 9 -9 9 -20
0 -13 -7 -20 -20 -20 -11 0 -20 -4 -20 -10 0 -5 -22 -10 -49 -10 -41 0 -51 4
-56 20 -3 11 -11 20 -17 20 -12 0 -48 39 -48 52 0 4 -7 8 -15 8 -8 0 -15 4
-15 8 0 13 -36 52 -48 52 -6 0 -13 6 -16 13 -5 10 -7 10 -12 0 -3 -7 -14 -13
-25 -13 -10 0 -19 -4 -19 -10 0 -5 -11 -10 -25 -10 -14 0 -25 -4 -25 -10 0 -5
-9 -10 -20 -10 -11 0 -20 -4 -20 -10 0 -5 5 -10 10 -10 6 0 10 -7 10 -15 0
-18 32 -85 40 -85 4 0 15 -18 25 -40 10 -22 21 -40 25 -40 4 0 12 -11 18 -25
9 -19 9 -31 0 -50 -6 -14 -14 -25 -18 -25 -4 0 -10 -13 -13 -30 l-6 -30 -86 0
c-50 0 -85 4 -85 10 0 6 -19 10 -43 10 l-44 0 -12 -82 c-7 -46 -14 -91 -17
-100 -4 -12 0 -18 10 -18 9 0 16 -4 16 -10 0 -5 9 -10 20 -10 11 0 20 -4 20
-10 0 -5 9 -10 20 -10 11 0 20 -4 20 -10 0 -5 7 -10 15 -10 8 0 15 -4 15 -10
0 -5 11 -10 25 -10 14 0 25 -4 25 -10 0 -5 9 -10 20 -10 11 0 20 -4 20 -10 0
-5 8 -10 19 -10 21 0 36 -32 46 -97 4 -24 11 -43 16 -43 5 0 9 -8 9 -17 1 -10
7 -36 15 -57 11 -33 11 -41 0 -52 -7 -8 -17 -14 -22 -14 -5 0 -15 -9 -23 -20
-8 -11 -19 -20 -25 -20 -6 0 -17 -9 -25 -20 -8 -11 -18 -20 -23 -20 -5 0 -22
-13 -37 -30 -15 -16 -32 -30 -38 -30 -16 0 -23 -30 -12 -51 6 -10 17 -19 25
-19 8 0 15 -4 15 -8 0 -13 36 -52 48 -52 6 0 14 -9 17 -20 3 -11 13 -20 21
-20 8 0 14 -4 14 -9 0 -19 79 -91 99 -91 12 0 21 5 21 10 0 6 23 10 50 10 28
0 50 5 50 10 0 6 20 10 45 10 25 0 45 -4 45 -10 0 -5 6 -10 14 -10 8 0 18 -9
21 -20 3 -11 12 -20 18 -20 7 0 19 -9 27 -20 8 -11 18 -20 23 -20 5 0 22 -13
37 -30 15 -16 33 -30 39 -30 6 0 11 -4 11 -10 0 -5 8 -10 18 -10 10 0 24 -9
32 -20 8 -11 21 -20 30 -20 9 0 22 -9 30 -20 8 -11 22 -20 32 -20 10 0 18 -4
18 -10 0 -5 7 -10 15 -10 8 0 15 -4 15 -10 0 -5 9 -10 20 -10 11 0 20 -4 20
-10 0 -5 9 -10 20 -10 11 0 20 -4 20 -10 0 -5 14 -10 30 -10 17 0 30 -4 30
-10 0 -5 14 -10 30 -10 17 0 30 -4 30 -10 0 -6 53 -10 140 -10 87 0 140 4 140
10 0 6 11 10 25 10 14 0 25 5 25 10 0 6 9 10 19 10 11 0 23 9 26 20 3 11 12
20 19 20 13 0 56 80 56 104 0 8 5 16 11 18 25 8 26 371 0 388 -4 3 -11 17 -15
33 -10 40 17 35 37 -8 9 -20 17 -40 17 -45 0 -6 9 -19 20 -30 11 -11 20 -29
20 -39 0 -11 7 -26 15 -35 22 -22 48 -206 41 -291 -7 -82 -26 -175 -36 -175
-4 0 -15 -18 -25 -40 -10 -22 -21 -40 -25 -40 -4 0 -13 -13 -20 -30 -7 -16
-17 -30 -22 -30 -6 0 -23 -13 -38 -30 -15 -16 -35 -30 -44 -30 -9 0 -16 -4
-16 -10 0 -5 -12 -10 -26 -10 -21 0 -25 -3 -19 -17 4 -10 10 -28 12 -40 3 -13
9 -23 14 -23 4 0 16 -27 26 -60 9 -33 21 -60 24 -60 4 0 17 -32 29 -70 12 -39
25 -70 30 -70 4 0 11 -15 15 -32 4 -18 9 -27 12 -20 2 6 13 12 24 12 10 0 19
5 19 10 0 6 9 10 20 10 11 0 20 5 20 10 0 6 7 10 15 10 8 0 15 5 15 10 0 6 7
10 15 10 16 0 22 56 6 62 -9 3 -51 185 -51 220 0 10 7 18 15 18 8 0 15 5 15
10 0 6 8 10 18 10 10 0 24 9 32 20 8 11 20 20 26 20 7 0 15 6 18 13 5 9 7 9
12 0 3 -7 11 -13 18 -13 6 0 18 -9 26 -20 8 -11 18 -20 23 -20 5 0 22 -13 37
-30 15 -16 32 -30 37 -30 5 0 15 -9 23 -20 8 -11 17 -20 20 -20 9 0 40 68 40
85 0 8 5 15 10 15 6 0 10 9 10 20 0 11 -6 20 -14 20 -7 0 -19 14 -26 30 -7 17
-16 30 -20 30 -4 0 -13 14 -20 30 -7 17 -18 30 -24 30 -7 0 -20 16 -29 35 -13
28 -15 51 -10 110 l6 75 33 0 c19 0 34 -4 34 -10 0 -5 18 -10 41 -10 l40 0 -7
47 c-4 27 -11 50 -15 51 -5 2 -9 10 -9 19 0 16 -23 43 -37 43 -5 0 -15 9 -23
20 -8 11 -21 20 -30 20 -9 0 -22 9 -30 20 -8 11 -19 20 -26 20 -6 0 -19 36
-29 80 -10 44 -22 80 -27 80 -4 0 -8 7 -8 15 0 8 5 15 10 15 18 0 64 51 53 59
-6 3 -18 21 -28 40 -23 46 -60 81 -85 81 -11 0 -20 5 -20 10 0 6 -11 10 -23
10 -18 0 -28 10 -42 40 -10 22 -21 40 -25 40 -4 0 -13 14 -20 30 -7 17 -18 30
-25 30 -22 0 -48 74 -40 117 5 35 3 43 -24 72 -16 18 -33 41 -36 52 -4 10 -12
19 -19 19 -7 0 -18 10 -24 23 -6 12 -11 16 -11 10 -1 -7 -8 -13 -16 -13 -8 0
-15 -4 -15 -10 0 -18 -45 -10 -60 10 -8 11 -20 20 -27 20 -7 0 -13 4 -13 8 0
12 -35 52 -45 52 -14 0 -45 43 -45 62 0 10 -4 18 -8 18 -4 0 -16 27 -25 60
-13 43 -23 60 -35 60 -10 0 -24 9 -32 20 -8 11 -19 20 -25 20 -6 0 -17 9 -25
20 -8 11 -22 20 -31 20 -10 0 -19 6 -22 13 -2 6 -7 -6 -11 -27 -8 -39 -26 -66
-45 -66 -6 0 -11 5 -11 10 0 6 -9 10 -20 10 -11 0 -20 5 -20 10 0 6 -11 10
-25 10 -14 0 -25 5 -25 10 0 6 -11 10 -24 10 -17 0 -27 9 -36 30 -7 17 -16 30
-21 30 -5 0 -9 7 -9 15 0 18 -36 93 -54 111 -6 6 -18 21 -26 33 -12 18 -24 21
-77 21 -35 0 -63 4 -63 10 0 6 -5 10 -11 10 -7 0 -9 -11 -6 -29z m207 -561 c0
-5 14 -10 30 -10 17 0 30 -4 30 -10 0 -5 11 -10 25 -10 14 0 25 -4 25 -10 0
-5 7 -10 15 -10 8 0 15 -4 15 -10 0 -5 9 -10 20 -10 11 0 20 -4 20 -10 0 -5 7
-10 15 -10 8 0 15 -4 15 -10 0 -5 7 -10 15 -10 8 0 15 -4 15 -10 0 -5 6 -10
13 -10 7 0 19 -9 27 -20 8 -11 19 -20 25 -20 6 0 17 -9 25 -20 8 -11 20 -20
27 -20 6 0 15 -9 18 -20 3 -11 10 -20 15 -20 5 0 12 -9 15 -20 3 -11 12 -20
19 -20 8 0 19 -13 26 -30 7 -16 18 -30 25 -30 6 0 20 -18 30 -40 10 -22 21
-40 25 -40 4 0 13 -14 20 -31 7 -17 18 -36 24 -42 14 -14 46 -111 46 -138 0
-11 5 -19 10 -19 6 0 10 -22 10 -50 0 -27 -4 -50 -10 -50 -5 0 -13 -12 -16
-27 -8 -30 -26 -53 -43 -53 -6 0 -11 -4 -11 -10 0 -5 -11 -10 -25 -10 -14 0
-25 -4 -25 -10 0 -5 -22 -10 -50 -10 -27 0 -50 5 -50 10 0 6 -16 10 -35 10
-19 0 -35 5 -35 10 0 6 -11 10 -25 10 -14 0 -25 5 -25 10 0 6 -11 10 -25 10
-14 0 -25 5 -25 10 0 6 -7 10 -15 10 -8 0 -15 5 -15 10 0 6 -7 10 -15 10 -8 0
-15 5 -15 10 0 6 -7 10 -16 10 -9 0 -29 14 -44 30 -15 17 -32 30 -37 30 -5 0
-15 9 -23 20 -8 11 -20 20 -26 20 -6 0 -20 11 -30 25 -10 14 -24 25 -31 25 -6
0 -15 9 -18 20 -3 11 -12 20 -19 20 -7 0 -23 23 -36 50 -13 28 -29 50 -35 50
-7 0 -18 14 -25 30 -7 17 -16 30 -20 30 -4 0 -10 10 -13 23 -7 32 -31 91 -39
97 -14 11 -31 127 -24 172 8 50 50 108 80 108 9 0 16 5 16 10 0 6 33 10 80 10
47 0 80 -4 80 -10z"/>
<path d="M421 1582 c-1 -218 2 -236 55 -289 13 -13 24 -28 24 -32 0 -5 12 -23
28 -40 15 -16 38 -44 52 -60 14 -17 31 -31 38 -31 6 0 12 -4 12 -8 0 -13 36
-52 46 -52 5 0 16 -9 24 -20 8 -11 18 -20 23 -20 5 0 22 -13 37 -30 15 -16 32
-30 37 -30 5 0 15 -9 23 -20 8 -11 22 -20 32 -20 10 0 18 -4 18 -10 0 -5 7
-10 15 -10 8 0 15 -4 15 -10 0 -5 7 -10 15 -10 8 0 15 -4 15 -10 0 -5 9 -10
20 -10 11 0 20 -4 20 -10 0 -5 9 -10 20 -10 11 0 20 -4 20 -10 0 -5 7 -10 15
-10 8 0 15 -4 15 -10 0 -5 11 -10 25 -10 14 0 25 -4 25 -10 0 -5 9 -10 20 -10
11 0 20 -4 20 -10 0 -5 11 -10 25 -10 14 0 25 -4 25 -10 0 -5 14 -10 30 -10
17 0 30 -4 30 -10 0 -5 14 -10 30 -10 17 0 30 -4 30 -10 0 -5 14 -10 30 -10
17 0 30 -4 30 -10 0 -5 20 -10 45 -10 25 0 45 -4 45 -10 0 -5 20 -10 45 -10
25 0 45 -4 45 -10 0 -6 30 -10 70 -10 40 0 70 -4 70 -10 0 -6 63 -10 170 -10
107 0 170 4 170 10 0 6 28 10 65 10 37 0 65 4 65 10 0 6 16 10 35 10 19 0 35
5 35 10 0 6 14 10 30 10 17 0 30 5 30 10 0 6 9 10 20 10 11 0 20 5 20 10 0 6
-18 10 -40 10 -22 0 -40 -4 -40 -10 0 -6 -53 -10 -140 -10 -87 0 -140 4 -140
10 0 6 -32 10 -75 10 -43 0 -75 4 -75 10 0 6 -20 10 -45 10 -25 0 -45 5 -45
10 0 6 -18 10 -40 10 -22 0 -40 5 -40 10 0 6 -13 10 -30 10 -16 0 -30 5 -30
10 0 6 -13 10 -30 10 -16 0 -30 5 -30 10 0 6 -13 10 -30 10 -16 0 -30 5 -30
10 0 6 -11 10 -25 10 -14 0 -25 5 -25 10 0 6 -9 10 -20 10 -11 0 -20 5 -20 10
0 6 -11 10 -25 10 -14 0 -25 5 -25 10 0 6 -7 10 -15 10 -8 0 -15 5 -15 10 0 6
-9 10 -20 10 -11 0 -20 5 -20 10 0 6 -9 10 -20 10 -11 0 -20 5 -20 10 0 6 -7
10 -15 10 -8 0 -15 5 -15 10 0 6 -8 10 -18 10 -10 0 -24 9 -32 20 -8 11 -22
20 -32 20 -10 0 -18 5 -18 10 0 6 -6 10 -13 10 -7 0 -19 9 -27 20 -8 11 -21
20 -30 20 -9 0 -22 9 -30 20 -8 11 -18 20 -23 20 -5 0 -22 14 -37 30 -15 17
-31 30 -35 30 -4 0 -24 18 -45 40 -21 22 -43 40 -49 40 -6 0 -11 4 -11 8 0 13
-36 52 -47 52 -6 0 -16 14 -23 30 -7 17 -19 30 -26 30 -8 0 -14 4 -14 8 0 8
-11 23 -50 69 -5 7 -15 24 -22 38 -6 14 -17 25 -23 25 -7 0 -20 18 -30 40 -10
22 -22 40 -26 40 -11 0 -49 74 -49 95 0 8 -4 15 -8 15 -5 0 -16 15 -25 33 -15
31 -16 23 -16 -171z"/>
<path d="M2460 980 c0 -5 7 -10 15 -10 8 0 15 5 15 10 0 6 -7 10 -15 10 -8 0
-15 -4 -15 -10z"/>
</g>
</svg>
