<?xml version="1.0" standalone="no"?>
<!DOCTYPE svg PUBLIC "-//W3C//DTD SVG 20010904//EN"
 "http://www.w3.org/TR/2001/REC-SVG-20010904/DTD/svg10.dtd">
<svg version="1.0" xmlns="http://www.w3.org/2000/svg"
 width="320.000000pt" height="315.000000pt" viewBox="0 0 320.000000 315.000000"
 preserveAspectRatio="xMidYMid meet">

<g transform="translate(0.000000,315.000000) scale(0.100000,-0.100000)"
fill="#000000" stroke="none">
<path d="M260 3141 c0 -5 -20 -19 -45 -31 -53 -25 -105 -86 -134 -153 -21 -48
-21 -60 -21 -1378 l0 -1329 24 -53 c32 -65 90 -125 153 -156 26 -13 56 -28 65
-32 24 -12 2584 -12 2606 0 9 5 37 19 62 30 25 11 57 31 71 43 40 35 88 107
99 147 10 40 16 1053 5 1070 -3 6 -4 15 0 21 3 5 7 50 8 101 2 100 6 93 -64
123 -20 9 -49 32 -65 53 -27 36 -29 43 -34 178 l-5 140 -68 3 -68 3 3 62 3 62
44 -3 c24 -2 54 -1 67 2 22 6 24 12 24 65 0 65 6 71 68 71 53 0 61 -9 64 -75
2 -45 7 -60 18 -60 22 0 16 825 -6 901 -20 64 -80 136 -139 164 -25 12 -45 26
-45 31 0 5 -543 9 -1345 9 -802 0 -1345 -4 -1345 -9z m1548 -286 c57 -17 131
-69 148 -103 6 -13 21 -33 33 -46 11 -12 21 -28 21 -34 0 -7 4 -12 8 -12 20 0
42 -98 42 -188 0 -79 -4 -102 -25 -146 -29 -60 -90 -135 -128 -155 -38 -20
-42 -41 -13 -68 40 -37 41 -58 7 -102 l-31 -39 0 -363 1 -364 29 -35 c37 -42
37 -63 5 -106 -52 -68 -38 -89 158 -231 111 -79 196 -158 237 -218 26 -39 60
-125 60 -153 0 -8 12 -26 26 -39 23 -22 26 -30 22 -74 -3 -28 -11 -56 -17 -62
-9 -9 -183 -13 -695 -15 -771 -3 -722 -8 -733 74 -4 35 -1 45 26 76 18 20 31
47 31 62 0 92 134 245 331 376 70 47 137 114 145 146 5 19 0 32 -20 53 -33 34
-33 71 -1 109 l25 30 0 281 0 281 -213 0 -213 0 -43 -36 c-72 -62 -154 -58
-206 10 -35 46 -37 117 -5 151 11 12 20 26 20 33 0 13 29 30 72 43 29 8 98
-14 98 -32 0 -5 11 -20 25 -34 l26 -25 219 0 220 0 0 38 c0 28 -7 45 -25 62
-15 14 -25 35 -25 52 0 18 8 33 25 44 34 22 31 47 -7 76 -56 43 -97 90 -120
137 -26 53 -48 170 -37 197 4 10 8 33 8 51 1 38 16 74 54 128 15 22 35 51 45
65 43 64 99 94 227 124 29 7 105 -2 163 -19z m-648 -607 c5 -61 8 -71 43 -108
21 -22 43 -40 48 -40 11 0 12 -150 1 -165 -4 -6 -42 -12 -84 -13 -73 -2 -79 0
-103 25 -14 15 -25 31 -25 35 0 3 -20 16 -45 28 -40 19 -45 26 -45 55 0 27 5
34 25 39 14 4 25 13 25 20 0 8 11 21 25 30 22 15 25 23 25 79 0 75 11 89 65
85 l40 -3 5 -67z m1141 -10 c38 -42 37 -62 -5 -104 -43 -43 -75 -44 -115 -3
-38 37 -39 68 -5 108 36 44 84 43 125 -1z m435 15 c27 -9 59 -23 71 -31 25
-16 23 -24 -21 -77 l-25 -29 -36 17 c-21 10 -60 17 -96 17 -50 0 -64 -4 -84
-25 -27 -26 -32 -62 -12 -88 14 -18 101 -67 121 -67 7 0 23 -11 36 -25 13 -14
28 -25 34 -25 18 0 98 -69 112 -96 18 -35 18 -133 -1 -177 -29 -69 -133 -127
-230 -127 -78 0 -245 71 -245 104 0 6 18 29 40 51 l40 39 22 -20 c41 -34 70
-46 127 -51 66 -5 97 9 123 54 18 29 18 33 2 66 -14 30 -31 42 -98 72 -171 76
-179 81 -221 174 -43 95 14 203 131 245 53 20 150 19 210 -1z m-438 -466 l2
-257 -60 0 c-41 0 -60 4 -61 13 -3 62 1 489 5 495 3 5 29 8 58 7 l53 -2 3
-256z m-1038 -131 c0 -133 42 -281 97 -341 59 -64 63 -75 63 -155 0 -54 -4
-81 -14 -89 -9 -8 -99 -11 -307 -9 l-294 3 -3 93 -3 93 36 37 c19 20 52 71 72
112 32 66 37 86 41 171 l4 95 48 27 c26 15 53 33 60 42 9 11 34 15 106 15 l94
0 0 -94z m963 -315 c6 -27 8 -28 54 -24 41 4 52 1 76 -22 37 -35 36 -76 -4
-126 -32 -41 -72 -52 -97 -27 -8 8 -18 9 -36 0 -20 -9 -27 -8 -37 5 -11 12
-10 17 4 24 14 8 17 25 17 94 0 55 -4 85 -12 87 -6 2 -8 9 -4 16 11 18 33 3
39 -27z m621 33 c35 -5 46 -11 46 -25 0 -26 -19 -33 -39 -15 -30 27 -93 21
-124 -12 -37 -39 -35 -77 5 -119 38 -39 71 -42 112 -10 41 33 30 60 -21 55
-21 -1 -37 0 -35 5 1 4 4 7 7 7 3 0 28 0 55 0 l50 0 0 -62 c-1 -48 -3 -59 -11
-45 -13 23 -31 22 -47 -3 -8 -14 -23 -20 -48 -20 -28 0 -43 8 -73 39 -67 70
-61 156 14 195 34 18 43 19 109 10z m-397 -100 c2 -45 13 -64 41 -64 6 0 12
10 12 22 0 12 7 30 16 40 16 16 16 18 0 24 -30 11 -16 24 26 24 l42 0 -22 -20
c-12 -11 -25 -33 -28 -48 -4 -15 -12 -33 -18 -41 -16 -20 -35 -101 -25 -107
22 -13 7 -32 -26 -32 -40 0 -40 0 -19 33 17 25 12 99 -7 111 -5 3 -9 14 -9 25
0 11 -11 31 -25 45 -14 14 -25 27 -25 29 0 3 15 5 33 5 31 0 32 -1 34 -46z
m653 19 c11 -15 20 -36 18 -47 -3 -19 -10 -21 -67 -21 -67 0 -85 -12 -61 -40
17 -20 59 -19 82 2 31 28 42 2 12 -30 -34 -37 -71 -35 -108 4 -24 25 -29 40
-29 76 0 57 28 82 90 83 33 0 46 -5 63 -27z"/>
<path d="M1637 2698 c-64 -14 -122 -61 -151 -122 -34 -72 -33 -126 2 -196 48
-95 142 -139 253 -117 42 8 63 20 100 56 65 63 84 141 58 234 -27 100 -153
170 -262 145z m155 -58 c117 -80 117 -242 0 -320 -73 -48 -173 -41 -235 18
-16 15 -35 39 -43 54 -18 35 -18 137 1 174 19 39 62 79 100 92 49 18 138 9
177 -18z"/>
<path d="M1580 911 c0 -5 7 -11 15 -15 8 -3 15 -15 15 -26 0 -13 7 -20 20 -20
21 0 27 14 11 24 -5 3 -7 15 -4 26 5 17 0 20 -26 20 -17 0 -31 -4 -31 -9z"/>
<path d="M1740 901 c0 -11 -4 -23 -10 -26 -17 -11 -11 -25 10 -25 13 0 24 10
30 25 5 14 14 25 20 25 5 0 10 5 10 10 0 6 -13 10 -30 10 -23 0 -30 -5 -30
-19z"/>
<path d="M1460 870 l-25 -20 33 0 c25 0 32 4 32 20 0 25 -8 25 -40 0z"/>
<path d="M1866 865 c-4 -16 -13 -25 -26 -25 -27 0 -25 -12 4 -38 l25 -21 3 32
c3 28 7 33 38 37 l35 6 -32 17 c-41 22 -40 22 -47 -8z"/>
<path d="M1501 833 c0 -5 4 -16 7 -26 7 -15 10 -16 26 -4 11 8 16 19 12 25 -8
13 -46 17 -45 5z"/>
<path d="M1364 785 c-17 -26 -10 -55 9 -36 12 12 46 14 71 5 20 -8 21 -50 1
-61 -12 -7 -7 -12 21 -25 33 -15 35 -15 29 0 -14 36 -17 70 -6 76 6 4 11 13
11 21 0 10 -10 12 -39 8 -33 -5 -42 -2 -53 16 -17 27 -24 26 -44 -4z"/>
<path d="M1965 790 c-5 -15 -15 -20 -44 -20 l-37 0 0 -55 c1 -30 1 -55 2 -55
1 0 16 5 34 11 l33 12 -27 14 c-35 18 -33 40 7 56 36 16 73 5 80 -22 3 -9 5
-2 6 14 1 52 -41 87 -54 45z"/>
<path d="M1341 710 c0 -14 3 -40 8 -58 18 -60 153 -169 138 -110 -9 31 14 58
48 58 l30 0 -25 20 c-32 25 -36 25 -43 0 -7 -27 -50 -42 -82 -30 -33 13 -41
36 -21 59 16 18 16 20 -13 37 -17 10 -32 25 -34 33 -3 9 -5 5 -6 -9z"/>
<path d="M1991 686 c-14 -15 -19 -26 -12 -31 6 -3 11 -17 11 -31 0 -17 -8 -27
-27 -35 -34 -13 -83 6 -83 32 0 26 -12 29 -38 9 -28 -23 -28 -30 3 -30 26 0
45 -25 45 -60 l0 -21 41 23 c22 13 48 34 57 48 9 14 20 28 25 31 12 9 21 89
10 89 -5 0 -20 -11 -32 -24z"/>
<path d="M1588 577 c19 -23 6 -56 -25 -63 l-26 -7 24 -13 c13 -7 44 -13 69
-13 40 0 42 2 23 11 -25 12 -31 46 -11 66 15 15 9 20 -33 29 -31 6 -33 5 -21
-10z"/>
<path d="M1743 583 c-16 -6 -17 -33 -2 -33 20 0 4 -45 -21 -57 -23 -12 -22
-13 26 -13 27 0 59 6 69 14 18 13 18 14 -3 20 -30 10 -47 43 -31 62 9 11 8 14
-7 13 -11 0 -25 -3 -31 -6z"/>
<path d="M1860 509 c0 -5 5 -7 10 -4 6 3 10 8 10 11 0 2 -4 4 -10 4 -5 0 -10
-5 -10 -11z"/>
<path d="M2235 1268 c-7 -18 -12 -35 -11 -38 20 -49 31 -60 62 -60 33 0 64 32
64 65 0 35 -31 65 -67 65 -29 0 -36 -5 -48 -32z"/>
<path d="M2986 1285 c-11 -31 -6 -35 45 -35 47 0 50 2 47 23 -2 18 -10 23 -44
25 -31 2 -43 -1 -48 -13z"/>
<path d="M3127 1914 c-11 -11 -8 -237 3 -254 22 -34 31 8 28 130 -3 115 -10
144 -31 124z"/>
</g>
</svg>
